<svg width="400" height="400" viewBox="0 0 400 400" fill="none" xmlns="http://www.w3.org/2000/svg">
  <rect width="400" height="400" fill="#1A1A1A"/>
  <path d="M200 150C183.431 150 170 163.431 170 180C170 196.569 183.431 210 200 210C216.569 210 230 196.569 230 180C230 163.431 216.569 150 200 150ZM166 250H234L254 270H146L166 250Z" fill="#333333"/>
  <path d="M200 120C166.863 120 140 146.863 140 180C140 213.137 166.863 240 200 240C233.137 240 260 213.137 260 180C260 146.863 233.137 120 200 120ZM200 220C177.909 220 160 202.091 160 180C160 157.909 177.909 140 200 140C222.091 140 240 157.909 240 180C240 202.091 222.091 220 200 220Z" fill="#666666"/>
  <text x="200" y="320" font-family="Arial" font-size="24" text-anchor="middle" fill="#FFFFFF">484 LTD</text>
</svg>

